<svg xmlns="http://www.w3.org/2000/svg" viewBox="0 0 16 16" shape-rendering="crispEdges"><rect width="16" height="16" fill="#0a0f2e"/><rect x="14" y="0" width="1" height="1" fill="#e3262f"/><rect x="13" y="1" width="1" height="1" fill="#e3262f"/><rect x="12" y="2" width="1" height="1" fill="#e3262f"/><rect x="11" y="3" width="1" height="1" fill="#f2f4ff"/><rect x="6" y="4" width="1" height="1" fill="#ffd23f"/><rect x="7" y="4" width="1" height="1" fill="#ffd23f"/><rect x="8" y="4" width="1" height="1" fill="#ffd23f"/><rect x="5" y="5" width="1" height="1" fill="#ffd23f"/><rect x="6" y="5" width="1" height="1" fill="#f2f4ff"/><rect x="7" y="5" width="1" height="1" fill="#f2f4ff"/><rect x="8" y="5" width="1" height="1" fill="#f2f4ff"/><rect x="9" y="5" width="1" height="1" fill="#ffd23f"/><rect x="5" y="6" width="1" height="1" fill="#ffd23f"/><rect x="6" y="6" width="1" height="1" fill="#f2f4ff"/><rect x="7" y="6" width="1" height="1" fill="#f2f4ff"/><rect x="8" y="6" width="1" height="1" fill="#f2f4ff"/><rect x="9" y="6" width="1" height="1" fill="#ffd23f"/><rect x="5" y="7" width="1" height="1" fill="#ffd23f"/><rect x="6" y="7" width="1" height="1" fill="#f2f4ff"/><rect x="7" y="7" width="1" height="1" fill="#f2f4ff"/><rect x="8" y="7" width="1" height="1" fill="#f2f4ff"/><rect x="9" y="7" width="1" height="1" fill="#ffd23f"/><rect x="6" y="8" width="1" height="1" fill="#ffd23f"/><rect x="7" y="8" width="1" height="1" fill="#ffd23f"/><rect x="8" y="8" width="1" height="1" fill="#ffd23f"/><rect x="2" y="10" width="1" height="1" fill="#6ea0ff"/><rect x="3" y="10" width="1" height="1" fill="#6ea0ff"/><rect x="11" y="10" width="1" height="1" fill="#2456e8"/><rect x="12" y="10" width="1" height="1" fill="#2456e8"/><rect x="2" y="11" width="1" height="1" fill="#6ea0ff"/><rect x="3" y="11" width="1" height="1" fill="#6ea0ff"/><rect x="6" y="11" width="1" height="1" fill="#2456e8"/><rect x="7" y="11" width="1" height="1" fill="#2456e8"/><rect x="11" y="11" width="1" height="1" fill="#2456e8"/><rect x="12" y="11" width="1" height="1" fill="#2456e8"/><rect x="1" y="12" width="1" height="1" fill="#2456e8"/><rect x="2" y="12" width="1" height="1" fill="#2456e8"/><rect x="3" y="12" width="1" height="1" fill="#2456e8"/><rect x="4" y="12" width="1" height="1" fill="#2456e8"/><rect x="6" y="12" width="1" height="1" fill="#2456e8"/><rect x="7" y="12" width="1" height="1" fill="#2456e8"/><rect x="10" y="12" width="1" height="1" fill="#2456e8"/><rect x="11" y="12" width="1" height="1" fill="#2456e8"/><rect x="12" y="12" width="1" height="1" fill="#2456e8"/><rect x="13" y="12" width="1" height="1" fill="#2456e8"/><rect x="1" y="13" width="1" height="1" fill="#2456e8"/><rect x="2" y="13" width="1" height="1" fill="#ffd23f"/><rect x="3" y="13" width="1" height="1" fill="#2456e8"/><rect x="4" y="13" width="1" height="1" fill="#ffd23f"/><rect x="5" y="13" width="1" height="1" fill="#2456e8"/><rect x="6" y="13" width="1" height="1" fill="#2456e8"/><rect x="7" y="13" width="1" height="1" fill="#2456e8"/><rect x="8" y="13" width="1" height="1" fill="#2456e8"/><rect x="10" y="13" width="1" height="1" fill="#2456e8"/><rect x="11" y="13" width="1" height="1" fill="#ffd23f"/><rect x="12" y="13" width="1" height="1" fill="#2456e8"/><rect x="13" y="13" width="1" height="1" fill="#ffd23f"/><rect x="1" y="14" width="1" height="1" fill="#2456e8"/><rect x="2" y="14" width="1" height="1" fill="#2456e8"/><rect x="3" y="14" width="1" height="1" fill="#2456e8"/><rect x="4" y="14" width="1" height="1" fill="#2456e8"/><rect x="5" y="14" width="1" height="1" fill="#2456e8"/><rect x="6" y="14" width="1" height="1" fill="#ffd23f"/><rect x="7" y="14" width="1" height="1" fill="#2456e8"/><rect x="8" y="14" width="1" height="1" fill="#ffd23f"/><rect x="10" y="14" width="1" height="1" fill="#2456e8"/><rect x="11" y="14" width="1" height="1" fill="#2456e8"/><rect x="12" y="14" width="1" height="1" fill="#2456e8"/><rect x="13" y="14" width="1" height="1" fill="#2456e8"/><rect x="0" y="15" width="1" height="1" fill="#6ea0ff"/><rect x="1" y="15" width="1" height="1" fill="#6ea0ff"/><rect x="2" y="15" width="1" height="1" fill="#6ea0ff"/><rect x="3" y="15" width="1" height="1" fill="#6ea0ff"/><rect x="4" y="15" width="1" height="1" fill="#6ea0ff"/><rect x="5" y="15" width="1" height="1" fill="#6ea0ff"/><rect x="6" y="15" width="1" height="1" fill="#6ea0ff"/><rect x="7" y="15" width="1" height="1" fill="#6ea0ff"/><rect x="8" y="15" width="1" height="1" fill="#6ea0ff"/><rect x="9" y="15" width="1" height="1" fill="#6ea0ff"/><rect x="10" y="15" width="1" height="1" fill="#6ea0ff"/><rect x="11" y="15" width="1" height="1" fill="#6ea0ff"/><rect x="12" y="15" width="1" height="1" fill="#6ea0ff"/><rect x="13" y="15" width="1" height="1" fill="#6ea0ff"/><rect x="14" y="15" width="1" height="1" fill="#6ea0ff"/><rect x="15" y="15" width="1" height="1" fill="#6ea0ff"/></svg>